:version 1.10
:name ASF
:units
  mass 1
  length 1
  angle deg
:documentation
  ASF file generated by Kaydara
:root
  axis xyz
  order  tx ty tz rx ry rz
  position 0 0 0
  orientation 0 0 0
:bonedata
  begin
    id 1
    name lfemurDummy
    direction 0.61522 -0.761478 0.204097
    length 5.68318
    axis 0 -0 0 xyz
  end
  begin
    id 2
    name lfemur
    direction 0.34202 -0.939693 -5.84747e-008
    length 16.9147
    axis 0 -0 20 xyz
    dof rx ry rz
    limits( -inf , inf )
( -inf , inf )
( -inf , inf )

  end
  begin
    id 3
    name ltibia
    direction 0.34202 -0.939693 1.20839e-009
    length 18.0532
    axis 0 -0 20 xyz
    dof rz ry rx
    limits( -inf , inf )
( -inf , inf )
( -inf , inf )

  end
  begin
    id 4
    name lfoot
    direction 0.0841971 -0.23133 0.969225
    length 5.23822
    axis -90 7.62852e-016 20 xyz
    dof ry rx rz
    limits( -inf , inf )
( -inf , inf )
( -inf , inf )

  end
  begin
    id 5
    name ltoes
    direction 0 0 0
    length 0
    axis 0 0 0 xyz
    dof rz ry rx
    limits( -inf , inf )
( -inf , inf )
( -inf , inf )

  end
  begin
    id 6
    name rfemurDummy
    direction -0.625247 -0.75382 0.202044
    length 5.74091
    axis 0 -0 0 xyz
  end
  begin
    id 7
    name rfemur
    direction -0.34202 -0.939693 -1.47013e-008
    length 16.4922
    axis 0 -0 -20 xyz
    dof rx ry rz
    limits( -inf , inf )
( -inf , inf )
( -inf , inf )

  end
  begin
    id 8
    name rtibia
    direction -0.34202 -0.939693 -7.74345e-010
    length 18.2421
    axis 0 -0 -20 xyz
    dof rz ry rx
    limits( -inf , inf )
( -inf , inf )
( -inf , inf )

  end
  begin
    id 9
    name rfoot
    direction -0.124331 -0.341598 0.931586
    length 5.45787
    axis -90 -7.62852e-016 -20 xyz
    dof ry rx rz
    limits( -inf , inf )
( -inf , inf )
( -inf , inf )

  end
  begin
    id 10
    name rtoes
    direction 0 0 0
    length 0
    axis 0 0 0 xyz
    dof rz ry rx
    limits( -inf , inf )
( -inf , inf )
( -inf , inf )

  end
  begin
    id 11
    name lowerbackDummy
    direction 0 0 0
    length 0
    axis 0 -0 0 xyz
  end
  begin
    id 12
    name lowerback
    direction -0.0218484 0.994884 -0.0986304
    length 4.45607
    axis 0 -0 0 xyz
    dof rx ry rz
    limits( -inf , inf )
( -inf , inf )
( -inf , inf )

  end
  begin
    id 13
    name upperback
    direction -0.00973057 0.999717 -0.0217111
    length 4.47449
    axis 0 -0 0 xyz
    dof rx ry rz
    limits( -inf , inf )
( -inf , inf )
( -inf , inf )

  end
  begin
    id 14
    name thorax
    direction -0.000928171 0.999699 0.0245198
    length 4.50973
    axis 0 -0 0 xyz
    dof rx ry rz
    limits( -inf , inf )
( -inf , inf )
( -inf , inf )

  end
  begin
    id 15
    name rclavicle
    direction -0.9009 0.425937 -0.0834055
    length 7.28587
    axis 0 -0 0 xyz
    dof rx ry rz
    limits( -inf , inf )
( -inf , inf )
( -inf , inf )

  end
  begin
    id 16
    name rhumerus
    direction -1 -2.23604e-007 -1.42637e-007
    length 13.5704
    axis 180 30 90 xyz
    dof rx ry rz
    limits( -inf , inf )
( -inf , inf )
( -inf , inf )

  end
  begin
    id 17
    name rradius
    direction -1 5.68281e-008 -4.4952e-007
    length 8.06782
    axis 180 30 90 xyz
    dof rz ry rx
    limits( -inf , inf )
( -inf , inf )
( -inf , inf )

  end
  begin
    id 18
    name rwrist
    direction -1 1.51393e-007 1.38143e-007
    length 4.03391
    axis -90 -90 0 xyz
    dof rz rx ry
    limits( -inf , inf )
( -inf , inf )
( -inf , inf )

  end
  begin
    id 19
    name rthumb
    direction 0 0 0
    length 0
    axis 0 0 0 xyz
    dof ry rx rz
    limits( -inf , inf )
( -inf , inf )
( -inf , inf )

  end
  begin
    id 20
    name rhand
    direction -1 -3.34077e-007 -5.59631e-007
    length 1.29744
    axis -90 -90 0 xyz
    dof ry rx rz
    limits( -inf , inf )
( -inf , inf )
( -inf , inf )

  end
  begin
    id 21
    name rfingers
    direction 0 0 0
    length 0
    axis 0 0 0 xyz
    dof rz ry rx
    limits( -inf , inf )
( -inf , inf )
( -inf , inf )

  end
  begin
    id 22
    name lclavicle
    direction 0.940017 0.332249 -0.0773232
    length 8.29589
    axis 0 -0 0 xyz
    dof rx ry rz
    limits( -inf , inf )
( -inf , inf )
( -inf , inf )

  end
  begin
    id 23
    name lhumerus
    direction 1 7.41158e-008 -1.44768e-008
    length 12.0042
    axis 180 -30 -90 xyz
    dof rx ry rz
    limits( -inf , inf )
( -inf , inf )
( -inf , inf )

  end
  begin
    id 24
    name lradius
    direction 1 -1.32972e-007 3.10821e-007
    length 8.1902
    axis 180 -30 -90 xyz
    dof rz ry rx
    limits( -inf , inf )
( -inf , inf )
( -inf , inf )

  end
  begin
    id 25
    name lwrist
    direction 1 3.08957e-007 4.01394e-007
    length 4.09509
    axis -90 90 0 xyz
    dof rz rx ry
    limits( -inf , inf )
( -inf , inf )
( -inf , inf )

  end
  begin
    id 26
    name lthumb
    direction 0 0 0
    length 0
    axis 0 0 0 xyz
    dof ry rx rz
    limits( -inf , inf )
( -inf , inf )
( -inf , inf )

  end
  begin
    id 27
    name lhand
    direction 1 -1.64125e-007 -6.99514e-007
    length 1.37229
    axis -90 90 0 xyz
    dof ry rx rz
    limits( -inf , inf )
( -inf , inf )
( -inf , inf )

  end
  begin
    id 28
    name lfingers
    direction 0 0 0
    length 0
    axis 0 0 0 xyz
    dof rz ry rx
    limits( -inf , inf )
( -inf , inf )
( -inf , inf )

  end
  begin
    id 29
    name lowerneck
    direction -0.030798 0.998024 0.0547665
    length 3.93918
    axis 0 -0 0 xyz
    dof rx ry rz
    limits( -inf , inf )
( -inf , inf )
( -inf , inf )

  end
  begin
    id 30
    name upperneck
    direction 0.0531588 0.996611 -0.0627736
    length 3.95491
    axis 0 -0 0 xyz
    dof rx ry rz
    limits( -inf , inf )
( -inf , inf )
( -inf , inf )

  end
  begin
    id 31
    name head
    direction 0 0 0
    length 0
    axis 0 0 0 xyz
    dof rx ry rz
    limits( -inf , inf )
( -inf , inf )
( -inf , inf )

  end
:hierarchy
  begin
    root lfemurDummy rfemurDummy lowerbackDummy
    lfemurDummy lfemur
    lfemur ltibia
    ltibia lfoot
    lfoot ltoes
    rfemurDummy rfemur
    rfemur rtibia
    rtibia rfoot
    rfoot rtoes
    lowerbackDummy lowerback
    lowerback upperback
    upperback thorax
    thorax rclavicle lclavicle lowerneck
    rclavicle rhumerus
    rhumerus rradius
    rradius rwrist
    rwrist rthumb rhand
    rhand rfingers
    lclavicle lhumerus
    lhumerus lradius
    lradius lwrist
    lwrist lthumb lhand
    lhand lfingers
    lowerneck upperneck
    upperneck head
  end

:SAMPLES-PER-SECOND 30
:FULLY-SPECIFIED
:DEGREES
73
root  -1.70855785 38.12866812 1.257462201 0.4299926758 -49.95199585 0.4290161133
lowerback  11.60429955 4.362659931 -3.436870098
upperback  5.776760101 5.170569897 -4.054510117
thorax  -0.3598369956 2.497910023 -2.893830061
lowerneck  5.366380215 0.4848619998 -10.51200008
upperneck  10.67510033 -0.7474499941 12.47649956
head  2.298860073 -0.5255590081 5.561689854
lclavicle  0 -9.442270133e-015 7.951389973e-016
lhumerus  4.980679989 -18.51589966 80.22679901
lradius  2.261822241e-031 -2.711642341e-031 129.8320007
lwrist  -7.062250077e-031 3.972515668e-031 27.98349953
lhand  -1.496451383e-031 -27.76390076 20.11240005
lfingers  90 7.125020027 -90
lthumb  89.89689403 5.08795885 91.16245106
rclavicle  0 -9.442270133e-015 7.951389973e-016
rhumerus  27.07589912 6.598859787 -76.67259979
rradius  -2.619596223e-031 2.36781749e-031 137.8899994
rwrist  1.059337512e-030 -1.765562519e-031 -4.916800022
rhand  -7.920061211e-032 -33.2840004 9.303460121
rfingers  -90 -7.125020027 -90
rthumb  -92.93752616 -24.25625642 -97.11982154
rfemur  -16.26440048 2.819109917 15.52149963
rtibia  -0 0 74.59369659
rfoot  -0 -4.458089828 -21.79649925
rtoes  5.373923086 19.29304026 -105.8922705
lfemur  -40.58660126 5.743579865 -11.23799992
ltibia  -0 0 56.8022995
lfoot  -0 -1.298969984 -15.2446003
ltoes  -4.250644065 -19.5611806 -102.515957
74
root  -1.780748931 38.3377766 1.025168914 0.02301025391 -48.09300232 1.133972168
lowerback  12.24230003 4.298810005 -4.263539791
upperback  5.971650124 4.949659824 -4.167729855
thorax  -0.5600600243 2.368050098 -2.571079969
lowerneck  5.568669796 0.2880559862 -10.70860004
upperneck  10.34809971 -1.013219953 12.6104002
head  2.201469898 -0.6660069823 5.634109974
lclavicle  0 -9.442270133e-015 7.951389973e-016
lhumerus  5.632009983 -18.41589928 80.12490082
lradius  2.215833142e-031 -2.749350382e-031 128.8670044
lwrist  -1.412450015e-030 6.620859447e-032 28.8355999
lhand  -1.496451383e-031 -27.76390076 20.11240005
lfingers  90 7.125020027 -90
lthumb  89.89689403 5.08795885 91.16245106
rclavicle  0 -9.442270133e-015 7.951389973e-016
rhumerus  27.97800064 5.708330154 -76.52590179
rradius  -2.603959692e-031 2.385002717e-031 137.5130005
rwrist  1.412450015e-030 -0 -5.143680096
rhand  -7.920061211e-032 -33.2840004 9.303460121
rfingers  -90 -7.125020027 -90
rthumb  -92.93752616 -24.25625642 -97.11982154
rfemur  -17.87120056 2.127449989 15.03600025
rtibia  -0 0 76.1190033
rfoot  -0 -1.245919943 -19.85400009
rtoes  5.373923086 19.29304026 -105.8922705
lfemur  -40.58589935 5.973070145 -11.90690041
ltibia  -0 0 55.20999908
lfoot  -0 1.19035995 -16.24180031
ltoes  -4.250644065 -19.5611806 -102.515957
75
root  -1.855275575 38.52199945 0.7935044334 -0.3200073242 -46.31900024 1.793029785
lowerback  12.90460014 4.176119804 -5.155580044
upperback  6.163090229 4.633259773 -4.207459927
thorax  -0.7801250219 2.189249992 -2.120980024
lowerneck  5.605549812 0.1566330045 -11.07520008
upperneck  10.20489979 -1.19295001 12.67510033
head  2.177129984 -0.7655370235 5.715819836
lclavicle  0 -9.442270133e-015 7.951389973e-016
lhumerus  6.303619862 -18.26040077 79.94909668
lradius  2.171694511e-031 -2.784346779e-031 127.9530029
lwrist  -1.412450015e-030 6.620859447e-032 28.71619987
lhand  -1.496451383e-031 -27.76390076 20.11240005
lfingers  90 7.125020027 -90
lthumb  89.89689403 5.08795885 91.16245106
rclavicle  0 -9.442270133e-015 7.951389973e-016
rhumerus  28.96640015 4.890639782 -76.27670288
rradius  -2.59206392e-031 2.39792591e-031 137.2279968
rwrist  7.062250077e-031 -1.765562519e-031 -5.647530079
rhand  -7.920061211e-032 -33.2840004 9.303460121
rfingers  -90 -7.125020027 -90
rthumb  -92.93752616 -24.25625642 -97.11982154
rfemur  -19.6243 1.429559946 14.50409985
rtibia  -0 0 77.69470215
rfoot  -0 0.9956489801 -17.1427002
rtoes  5.373923086 19.29304026 -105.8922705
lfemur  -40.60329819 6.244120121 -12.55029964
ltibia  -0 0 53.72510147
lfoot  -0 3.395210028 -16.78140068
ltoes  -4.250644065 -19.5611806 -102.515957
76
root  -1.908082286 38.67444316 0.5804377747 -0.4340209961 -44.35600281 2.182006836
lowerback  13.49300003 3.921920061 -5.642950058
upperback  6.427269936 4.198959827 -4.182519913
thorax  -0.8490030169 1.958699942 -1.795179963
lowerneck  5.73679018 0.04085220024 -11.50399971
upperneck  9.979390144 -1.356379986 12.73340034
head  2.112709999 -0.8621799946 5.805819988
lclavicle  0 -9.442270133e-015 7.951389973e-016
lhumerus  7.335919857 -17.93580055 79.729599
lradius  2.121144359e-031 -2.823046341e-031 126.9199982
lwrist  -7.062250077e-031 2.758691436e-031 28.80920029
lhand  -1.496451383e-031 -27.76390076 20.11240005
lfingers  90 7.125020027 -90
lthumb  89.89689403 5.08795885 91.16245106
rclavicle  0 -9.442270133e-015 7.951389973e-016
rhumerus  30.08469963 4.110010147 -75.98729706
rradius  -2.575260466e-031 2.415963073e-031 136.8280029
rwrist  7.062250077e-031 -1.765562519e-031 -5.799220085
rhand  -7.920061211e-032 -33.2840004 9.303460121
rfingers  -90 -7.125020027 -90
rthumb  -92.93752616 -24.25625642 -97.11982154
rfemur  -21.39719963 0.6506159902 14.03909969
rtibia  -0 0 79.11969757
rfoot  -0 0.9208610058 -13.87160015
rtoes  5.373923086 19.29304026 -105.8922705
lfemur  -40.71120071 6.096580029 -12.9861002
ltibia  -0 0 52.48529816
lfoot  -0 4.742410183 -16.73320007
ltoes  -4.250644065 -19.5611806 -102.515957
